<svg width="428" height="357" viewBox="0 0 428 357" fill="none" xmlns="http://www.w3.org/2000/svg">
<g clip-path="url(#clip0_27_11)">
<path d="M411.941 42.8548H416.182C419.43 20.4533 394.435 3.44177 365.767 1.36502C377.026 3.68525 387.329 8.80803 395.496 16.1462C403.663 23.4843 409.362 32.7409 411.941 42.8548Z" fill="#F2F2F2"/>
<path d="M345.956 109.692C343.556 109.666 341.257 109.593 339.059 109.474C341.34 109.79 343.655 109.863 345.956 109.692Z" fill="#F2F2F2"/>
<path d="M292.599 55.0356C293.152 25.5281 319.329 1.51438 352.185 1.51438C356.697 1.08402 361.244 1.03402 365.767 1.36504C356.795 -0.463677 347.481 -0.454864 338.514 1.39083C329.546 3.23651 321.157 6.87172 313.967 12.0269C306.777 17.182 300.971 23.7249 296.981 31.1702C292.99 38.6155 290.916 46.7723 290.913 55.0356C290.913 83.0151 292.028 106.886 339.059 109.474C315.231 106.223 292.165 78.2056 292.599 55.0356Z" fill="#F2F2F2"/>
<path d="M411.239 55.8976C400.468 72.4477 358.121 84.5852 352.185 108.558C350.165 109.153 348.074 109.534 345.956 109.692C347.907 109.713 349.92 109.706 352.012 109.663C385.476 109.663 412.926 85.841 413.444 55.8977L411.239 55.8976Z" fill="#F2F2F2"/>
<path d="M356.993 95.2541C349.162 79.9936 345.732 63.547 348.134 45.5289C347.763 43.4328 349.064 41.3323 351.042 40.8334L386.498 31.9357C388.477 31.4415 390.383 32.7374 390.759 34.8324L399.618 84.5575C399.989 86.6536 398.688 88.7542 396.71 89.253L361.254 98.1507C359.275 98.6449 357.369 97.3491 356.993 95.2541Z" fill="#F2F2F2"/>
<path d="M373.787 37.4366C374.298 33.8838 372.036 30.6931 368.734 30.31C365.433 29.9268 362.342 32.4963 361.831 36.049C361.32 39.6017 363.582 42.7924 366.883 43.1756C370.185 43.5587 373.276 40.9893 373.787 37.4366Z" fill="#F2F2F2"/>
<path d="M308.947 70.9371C301.116 55.6767 297.686 39.23 300.088 21.212C299.717 19.1159 301.018 17.0153 302.996 16.5165L338.452 7.61871C340.431 7.12459 342.337 8.42042 342.713 10.5154L351.572 60.2406C351.943 62.3367 350.642 64.4372 348.664 64.936L313.208 73.8338C311.229 74.3279 309.323 73.0321 308.947 70.9371Z" fill="#F2F2F2"/>
<path d="M325.741 13.1196C326.252 9.56691 323.99 6.37622 320.688 5.99306C317.387 5.60989 314.296 8.17935 313.785 11.7321C313.274 15.2848 315.536 18.4755 318.837 18.8586C322.139 19.2418 325.23 16.6724 325.741 13.1196Z" fill="#F2F2F2"/>
<path d="M357.477 236.146H0.5V237.19H357.477V236.146Z" fill="#3F3D56"/>
<path d="M145.706 113.022C145.284 111.699 151.172 123.832 149.771 123.978C143.392 124.636 129.258 127.599 124.815 129.195C124.615 129.175 124.414 129.154 124.22 129.128C123.744 129.081 123.279 129.013 122.82 128.935C112.474 127.176 104.648 119.544 104.436 110.33C104.424 110.2 104.424 110.064 104.424 109.934C104.423 109.298 104.46 108.662 104.536 108.03C104.633 107.166 104.801 106.31 105.036 105.468L105.013 105.463C100.893 101.988 102.629 95.545 107.879 92.8269C110.159 91.6489 112.689 90.9115 115.305 90.6618C116.014 90.5927 116.728 90.5578 117.441 90.5575H124.144C125.531 90.289 126.937 90.106 128.351 90.0097H128.363C141.857 89.0862 152.496 96.4737 151.502 105.463C151.496 105.473 151.484 105.484 151.478 105.494C151.19 105.88 150.937 106.245 150.713 106.595C150.495 106.924 150.313 107.237 150.154 107.534C148.924 109.83 152.086 112.718 149.989 113.257C147.201 113.974 157.322 137.543 146.286 137.543C151.654 138.914 146.867 116.674 145.706 113.022Z" fill="#2F2E41"/>
<path d="M207.277 340.833L215.98 340.767L219.831 309.914L206.988 310.011L207.277 340.833Z" fill="#FFB6B6"/>
<path d="M235.152 353.264C235.16 354.19 234.758 355.082 234.035 355.743C233.312 356.404 232.326 356.78 231.295 356.789L213.992 356.919L210.963 351.404L209.851 356.947L203.322 357L204.971 337.23L207.242 337.094L216.507 336.52L219.496 336.341L219.548 341.934L233.447 350.402C233.968 350.72 234.395 351.146 234.692 351.644C234.989 352.143 235.147 352.698 235.152 353.264Z" fill="#2F2E41"/>
<path d="M218.308 325.359C214.847 324.984 206.111 324.316 206.111 324.316C206.111 324.316 201.987 316.584 202.655 314.179C203.312 311.763 204.949 311.273 203.428 310.01C199.722 297.708 200.314 277.727 200.314 277.727C200.314 277.727 180.369 269.051 160.174 259.008C140.432 249.184 120.451 238.056 118.645 232.447C117.453 228.436 116.652 224.339 116.252 220.203C115.95 217.49 115.764 214.829 115.648 212.445C115.375 206.988 115.485 202.955 115.485 202.955L140.652 202.579L157.322 202.235H159.064V204.844L163.444 211.532C163.444 211.532 171.012 219.436 170.123 220.172C169.049 221.064 169.374 221.857 173.19 222.504C174.275 222.675 175.381 222.715 176.478 222.624C182.64 222.201 185.219 225.368 185.37 226.062C186.404 230.961 196.771 241.604 206.483 250.687H206.489C215.451 259.076 223.849 266.129 223.849 266.129L224.326 275.129L226.562 317.205C226.562 317.205 222.368 315.097 226.115 319.641C229.861 324.191 221.77 325.73 218.308 325.359Z" fill="#2F2E41"/>
<path d="M312.727 227.522L316.28 220.385L286.645 204.407L281.401 214.939L312.727 227.522Z" fill="#FFB6B6"/>
<path d="M336.906 209.922C337.847 210.301 338.583 211 338.951 211.866C339.319 212.731 339.29 213.693 338.871 214.539L331.805 228.727L324.962 228.907L330.111 232.121L327.45 237.476L308.12 227.907L308.927 225.995L312.199 218.189L313.261 215.672L318.946 217.956L333.3 210.125C333.838 209.831 334.447 209.66 335.075 209.625C335.703 209.589 336.331 209.691 336.906 209.922Z" fill="#2F2E41"/>
<path d="M297.483 210.249C297.463 210.29 297.439 210.327 297.419 210.36C295.799 213.029 293.142 219.206 292.976 219.587C292.972 219.594 292.969 219.601 292.968 219.609C292.968 219.609 284.201 219.203 281.96 217.759C279.715 216.304 283.112 218.605 277.935 215.562C275.258 213.981 266.09 211.511 257.877 209.494C250.236 207.617 243.428 206.141 243.428 206.141C243.428 206.141 237.41 211.061 228.691 217.859L228.687 217.863C220.589 224.164 210.153 232.087 200.04 239.182C178.388 244.903 155.535 249.859 149.822 247.074C145.806 245.019 141.998 242.653 138.439 240.003L144.322 226.152L159.88 211.518L176.256 205.541L182.663 203.201L191.633 199.931L240.202 182.206L293.988 198.94C293.988 198.94 290.241 201.659 296.338 200.225C302.353 198.813 299.175 207.387 297.483 210.249Z" fill="#2F2E41"/>
<path d="M127.7 129.717H145.125L147.868 135.156L159.537 139.827C161.055 140.435 162.392 141.355 163.441 142.513C164.49 143.671 165.221 145.034 165.576 146.492C169.778 163.746 164.463 167.331 164.292 173.019C163.711 192.323 160.718 196.162 161.053 200.928C161.153 202.354 162.122 207.993 165.24 207.462C168.358 206.931 166.677 209.16 167.415 210.026C168.052 210.775 171.405 209.782 169.301 212.269C167.196 214.756 176.194 221.539 170.681 221.539C160.226 221.539 139.317 226.234 131.185 226.234C123.054 226.234 116.77 228.4 113.18 228.321C110.991 228.273 111.676 219.108 112.55 211.171C112.748 209.374 116.59 209.421 113.142 206.089C109.695 202.757 113.753 201.025 113.76 200.148C113.768 199.217 115.715 196.87 113.286 193.031C110.856 189.192 113.096 190.781 112.99 189.575C112.177 180.286 111.012 168.442 111.012 168.442L105.875 155.457C104.562 152.138 104.736 148.49 106.359 145.284C107.983 142.078 110.929 139.563 114.577 138.27L120.603 136.136L127.7 129.717Z" fill="#47B1FF"/>
<path d="M250.077 124.928C249.69 125.576 249.15 126.142 248.495 126.585C247.841 127.028 247.087 127.339 246.286 127.494C245.485 127.65 244.656 127.648 243.856 127.487C243.056 127.327 242.304 127.012 241.653 126.565L217.107 139.047L211.594 133.798L240.868 119.164C241.788 118.235 243.054 117.641 244.428 117.496C245.802 117.35 247.188 117.661 248.323 118.372C249.458 119.082 250.263 120.142 250.587 121.35C250.91 122.559 250.728 123.831 250.077 124.928Z" fill="#FFB6B6"/>
<path d="M139.557 154.392L139.183 158.411L188.05 157.847L236.692 133.285L229.581 123.453L186.827 139.6L156.441 140.153C152.165 140.231 148.072 141.73 144.954 144.359C141.836 146.989 139.913 150.563 139.557 154.392Z" fill="#47B1FF"/>
<path d="M133.66 126.851C142.424 126.851 149.529 120.47 149.529 112.597C149.529 104.725 142.424 98.3429 133.66 98.3429C124.896 98.3429 117.791 104.725 117.791 112.597C117.791 120.47 124.896 126.851 133.66 126.851Z" fill="#FFB6B6"/>
<path d="M151.502 106.24C151.237 106.365 150.978 106.48 150.713 106.595C150.436 106.715 150.16 106.835 149.883 106.944C144.569 109.11 140.244 109.35 137.62 106.24C137.549 104.604 137.14 102.994 136.413 101.493C136.542 103.17 136.049 104.839 135.013 106.24H129.728C124.285 109.485 121.49 109.824 125.268 120.478C126.321 123.446 130.509 140.72 128.862 143.282C128.385 143.235 123.279 129.013 122.82 128.935C112.474 127.176 104.648 119.544 104.436 110.33C104.448 109.861 104.483 109.391 104.536 108.932C105.218 108.012 105.967 107.134 106.778 106.303C106.774 103.84 107.404 101.41 108.62 99.2022C110.158 96.4055 112.555 94.0628 115.529 92.4513C117.301 91.6793 119.149 91.0559 121.048 90.5887C121.095 90.5783 121.137 90.5679 121.184 90.5574C121.766 90.4166 122.361 90.2862 122.955 90.1766C124.183 89.9437 125.425 89.7748 126.674 89.6705C126.762 89.6653 126.851 89.6601 126.933 89.6601C127.432 89.6611 127.922 89.7818 128.351 90.0096C128.357 90.0096 128.357 90.0149 128.363 90.0149C128.67 90.176 128.938 90.3906 129.152 90.6461C129.527 91.076 129.731 91.6073 129.728 92.1539H135.613C135.831 92.1539 136.048 92.1591 136.266 92.1695C140.194 92.2901 143.93 93.7228 146.743 96.1872C149.557 98.6516 151.245 101.97 151.478 105.494C151.496 105.744 151.502 105.99 151.502 106.24Z" fill="#2F2E41"/>
<path d="M112.018 108.849C117.792 108.849 122.473 104.644 122.473 99.4579C122.473 94.2715 117.792 90.067 112.018 90.067C106.244 90.067 101.563 94.2715 101.563 99.4579C101.563 104.644 106.244 108.849 112.018 108.849Z" fill="#2F2E41"/>
<path d="M124.796 92.1539C124.996 97.3372 120.115 101.545 114.341 101.545C111.568 101.545 108.909 100.555 106.948 98.7942C104.988 97.0331 103.886 94.6445 103.886 92.1539C103.886 86.9675 110.879 86.9138 114.341 82.763C119.239 76.8913 124.527 85.1638 124.796 92.1539Z" fill="#2F2E41"/>
<path d="M138.465 239.058C136.842 217.421 141.594 197.068 154.793 178.417C155.125 177.19 155.985 176.131 157.185 175.473C158.385 174.815 159.827 174.611 161.193 174.907L212.18 185.983C213.546 186.281 214.725 187.054 215.457 188.132C216.19 189.209 216.416 190.504 216.087 191.732L199.76 252.373C199.428 253.6 198.568 254.659 197.368 255.317C196.168 255.975 194.726 256.178 193.36 255.883L142.373 244.807C141.007 244.509 139.828 243.736 139.096 242.658C138.363 241.581 138.137 240.286 138.465 239.058Z" fill="#F2F2F2"/>
<path opacity="0.2" d="M148.457 243.653C147.091 243.355 145.913 242.582 145.18 241.505C144.448 240.427 144.221 239.132 144.55 237.904C142.926 216.267 147.679 195.914 160.877 177.263C161.1 176.458 161.555 175.721 162.197 175.125L161.193 174.907C159.827 174.611 158.385 174.815 157.185 175.473C155.985 176.131 155.125 177.19 154.793 178.417C141.594 197.068 136.842 217.421 138.466 239.058C138.137 240.286 138.363 241.58 139.096 242.658C139.828 243.736 141.007 244.509 142.373 244.807L193.359 255.883C194.266 256.077 195.213 256.052 196.105 255.811C196.998 255.57 197.803 255.122 198.44 254.511L148.457 243.653Z" fill="black"/>
<path d="M194.621 218.125L160.431 210.788C159.887 210.671 159.418 210.365 159.125 209.937C158.833 209.509 158.742 208.994 158.872 208.506C159.002 208.017 159.342 207.595 159.818 207.332C160.294 207.069 160.867 206.987 161.411 207.103L195.601 214.44C196.144 214.558 196.612 214.865 196.903 215.292C197.194 215.72 197.285 216.234 197.155 216.721C197.026 217.209 196.686 217.63 196.211 217.894C195.736 218.157 195.164 218.24 194.621 218.125Z" fill="white"/>
<path d="M170.641 202.297L163.119 200.683C162.575 200.567 162.105 200.262 161.811 199.835C161.517 199.408 161.424 198.894 161.552 198.405C161.68 197.916 162.019 197.493 162.494 197.229C162.969 196.965 163.542 196.88 164.086 196.995L164.099 196.998L171.621 198.612C172.163 198.73 172.631 199.037 172.923 199.464C173.214 199.892 173.305 200.406 173.175 200.893C173.045 201.381 172.706 201.802 172.231 202.066C171.756 202.329 171.184 202.412 170.641 202.297Z" fill="white"/>
<path d="M190.312 234.327L156.122 226.989C155.579 226.871 155.111 226.565 154.819 226.137C154.528 225.71 154.437 225.196 154.567 224.708C154.696 224.22 155.036 223.798 155.511 223.535C155.987 223.272 156.559 223.189 157.102 223.304L191.292 230.641C191.562 230.698 191.817 230.802 192.042 230.947C192.267 231.093 192.458 231.276 192.604 231.488C192.75 231.7 192.848 231.935 192.893 232.181C192.938 232.427 192.928 232.678 192.864 232.92C192.801 233.163 192.685 233.392 192.522 233.594C192.36 233.796 192.156 233.967 191.92 234.098C191.684 234.229 191.421 234.316 191.148 234.356C190.874 234.396 190.594 234.387 190.325 234.329L190.312 234.327Z" fill="white"/>
<path d="M192.466 226.226L158.276 218.889C157.732 218.773 157.262 218.467 156.968 218.039C156.675 217.611 156.583 217.096 156.712 216.608C156.841 216.119 157.182 215.696 157.658 215.433C158.134 215.169 158.707 215.086 159.252 215.202L159.257 215.204L193.446 222.541C193.989 222.659 194.457 222.965 194.749 223.393C195.04 223.82 195.131 224.334 195.002 224.822C194.872 225.31 194.532 225.732 194.057 225.995C193.582 226.258 193.01 226.341 192.466 226.226Z" fill="white"/>
<path d="M185.239 188.174C190.095 188.174 194.033 184.637 194.033 180.275C194.033 175.912 190.095 172.376 185.239 172.376C180.382 172.376 176.444 175.912 176.444 180.275C176.444 184.637 180.382 188.174 185.239 188.174Z" fill="#3F3D56"/>
<path d="M140.897 243.58C140.18 243.224 139.557 242.732 139.072 242.139C138.587 241.545 138.251 240.864 138.088 240.143C137.925 239.421 137.939 238.676 138.128 237.96C138.316 237.244 138.676 236.573 139.182 235.993L125.602 213.787L131.517 208.903L147.432 235.384C148.454 236.221 149.098 237.366 149.243 238.602C149.388 239.838 149.023 241.079 148.217 242.089C147.412 243.099 146.222 243.809 144.873 244.084C143.523 244.359 142.109 244.18 140.897 243.58Z" fill="#FFB6B6"/>
<path d="M125.036 145.282L110.43 144.016C109.748 143.957 109.061 144.027 108.411 144.221C107.761 144.414 107.164 144.728 106.657 145.141C106.15 145.555 105.745 146.059 105.468 146.621C105.191 147.183 105.048 147.792 105.048 148.406V187.447L131.766 231.451L142.801 225.19L125.377 186.584L125.036 145.282Z" fill="#47B1FF"/>
<path d="M240.343 142.114C243.729 120.642 253.059 101.61 270.262 85.8091C270.869 84.6702 271.954 83.794 273.279 83.3727C274.604 82.9515 276.062 83.0197 277.331 83.5624L324.672 103.858C325.94 104.403 326.915 105.378 327.384 106.569C327.853 107.759 327.777 109.068 327.173 110.208L297.254 166.513C296.647 167.652 295.562 168.528 294.237 168.949C292.911 169.371 291.454 169.302 290.185 168.76L242.844 148.464C241.576 147.919 240.601 146.944 240.132 145.754C239.663 144.563 239.739 143.254 240.343 142.114Z" fill="#F2F2F2"/>
<path opacity="0.2" d="M249.063 148.464C247.795 147.919 246.819 146.944 246.35 145.754C245.881 144.563 245.957 143.254 246.561 142.114C249.948 120.642 259.278 101.61 276.48 85.809C276.883 85.063 277.498 84.4257 278.263 83.9617L277.331 83.5623C276.062 83.0197 274.605 82.9515 273.279 83.3727C271.954 83.7939 270.869 84.6701 270.262 85.809C253.059 101.61 243.73 120.642 240.343 142.114C239.739 143.254 239.663 144.563 240.132 145.754C240.601 146.944 241.576 147.919 242.844 148.464L290.185 168.76C291.027 169.118 291.96 169.269 292.888 169.199C293.816 169.129 294.708 168.84 295.472 168.36L249.063 148.464Z" fill="black"/>
<path d="M300.101 132.05L268.335 118.528C267.829 118.313 267.44 117.927 267.252 117.453C267.064 116.98 267.093 116.459 267.332 116.005C267.572 115.551 268.002 115.201 268.529 115.032C269.056 114.863 269.636 114.889 270.141 115.104L301.907 128.626C302.411 128.842 302.798 129.229 302.985 129.701C303.171 130.174 303.142 130.694 302.903 131.146C302.664 131.599 302.235 131.949 301.71 132.118C301.184 132.288 300.606 132.263 300.101 132.05Z" fill="white"/>
<path d="M280.277 112.115L273.288 109.14C273.037 109.034 272.812 108.885 272.625 108.701C272.438 108.517 272.294 108.302 272.2 108.068C272.106 107.834 272.064 107.585 272.077 107.337C272.089 107.088 272.157 106.844 272.275 106.619C272.393 106.393 272.559 106.191 272.764 106.023C272.969 105.856 273.208 105.726 273.469 105.642C273.73 105.558 274.007 105.52 274.284 105.532C274.56 105.544 274.832 105.605 275.083 105.711L275.095 105.716L282.083 108.691C282.587 108.907 282.975 109.293 283.162 109.766C283.349 110.239 283.319 110.758 283.08 111.212C282.841 111.665 282.412 112.014 281.886 112.184C281.361 112.353 280.782 112.328 280.277 112.115Z" fill="white"/>
<path d="M292.159 147.103L260.393 133.581C259.89 133.365 259.502 132.978 259.315 132.506C259.128 132.033 259.157 131.513 259.396 131.06C259.635 130.607 260.065 130.257 260.59 130.088C261.116 129.919 261.695 129.944 262.2 130.157L293.966 143.679C294.216 143.785 294.441 143.934 294.628 144.118C294.814 144.302 294.959 144.517 295.053 144.751C295.146 144.985 295.188 145.233 295.175 145.482C295.162 145.73 295.095 145.974 294.977 146.199C294.859 146.424 294.693 146.626 294.489 146.794C294.284 146.961 294.044 147.091 293.784 147.176C293.523 147.26 293.247 147.297 292.97 147.286C292.693 147.274 292.422 147.214 292.171 147.108L292.159 147.103Z" fill="white"/>
<path d="M296.13 139.576L264.364 126.055C263.858 125.84 263.468 125.454 263.28 124.981C263.091 124.508 263.119 123.987 263.358 123.533C263.597 123.078 264.027 122.728 264.554 122.558C265.08 122.389 265.66 122.414 266.166 122.629L266.171 122.631L297.936 136.152C298.44 136.369 298.828 136.755 299.014 137.228C299.201 137.7 299.172 138.22 298.933 138.673C298.694 139.126 298.265 139.476 297.739 139.645C297.214 139.814 296.635 139.79 296.13 139.576Z" fill="white"/>
<path d="M299.624 101.174C304.481 101.174 308.418 97.6378 308.418 93.2752C308.418 88.9126 304.481 85.376 299.624 85.376C294.767 85.376 290.829 88.9126 290.829 93.2752C290.829 97.6378 294.767 101.174 299.624 101.174Z" fill="#3F3D56"/>
<path d="M375.513 169.93C365.976 151.345 361.799 131.316 364.724 109.373C364.272 106.82 365.856 104.262 368.265 103.654L411.446 92.8184C413.856 92.2167 416.177 93.7948 416.634 96.3461L427.423 156.904C427.875 159.456 426.291 162.014 423.882 162.622L380.702 173.458C378.292 174.06 375.971 172.482 375.513 169.93Z" fill="#F2F2F2"/>
<path opacity="0.2" d="M384.905 169.963C382.495 170.565 380.174 168.987 379.717 166.436C370.179 147.851 366.002 127.821 368.928 105.878C368.79 105.063 368.854 104.231 369.115 103.441L368.265 103.654C365.856 104.262 364.272 106.82 364.724 109.373C361.799 131.316 365.975 151.345 375.513 169.93C375.97 172.482 378.292 174.06 380.702 173.458L423.882 162.622C424.704 162.374 425.443 161.943 426.029 161.369C426.616 160.795 427.031 160.097 427.236 159.34L384.905 169.963Z" fill="black"/>
<path d="M410.365 128.529L381.444 135.876C380.485 136.118 379.56 135.491 379.378 134.476C379.274 134.009 379.358 133.524 379.614 133.108C379.871 132.691 380.284 132.37 380.779 132.2L409.7 124.854C410.659 124.614 411.582 125.242 411.763 126.258C411.866 126.724 411.782 127.207 411.526 127.623C411.27 128.039 410.859 128.36 410.365 128.529Z" fill="white"/>
<path d="M385.983 124.182L379.621 125.798C378.663 126.045 377.735 125.422 377.549 124.408C377.443 123.941 377.525 123.455 377.781 123.037C378.037 122.619 378.449 122.296 378.945 122.125L378.956 122.123L385.319 120.506C386.278 120.266 387.201 120.895 387.382 121.91C387.484 122.376 387.4 122.86 387.144 123.276C386.889 123.691 386.477 124.012 385.983 124.182Z" fill="white"/>
<path d="M413.287 144.687L384.367 152.033C383.408 152.273 382.484 151.645 382.304 150.629C382.201 150.163 382.285 149.68 382.541 149.264C382.797 148.848 383.208 148.527 383.702 148.358L412.623 141.011C413.58 140.765 414.508 141.387 414.695 142.401C414.8 142.868 414.718 143.354 414.463 143.772C414.207 144.19 413.794 144.513 413.298 144.684L413.287 144.687Z" fill="white"/>
<path d="M411.826 136.608L382.905 143.954C381.947 144.199 381.021 143.575 380.836 142.56C380.731 142.093 380.814 141.607 381.071 141.189C381.327 140.772 381.74 140.45 382.236 140.28L382.24 140.279L411.161 132.933C412.12 132.692 413.044 133.321 413.224 134.337C413.327 134.803 413.243 135.286 412.987 135.702C412.731 136.117 412.32 136.438 411.826 136.608Z" fill="white"/>
<path d="M395.965 99.5176C396.587 95.191 393.832 91.3052 389.811 90.8386C385.791 90.372 382.027 93.5011 381.404 97.8278C380.782 102.154 383.537 106.04 387.558 106.507C391.578 106.973 395.342 103.844 395.965 99.5176Z" fill="#3F3D56"/>
</g>
<defs>
<clipPath id="clip0_27_11">
<rect width="427" height="357" fill="white" transform="translate(0.5)"/>
</clipPath>
</defs>
</svg>
