<svg width="204" height="37" viewBox="0 0 204 37" fill="none" xmlns="http://www.w3.org/2000/svg">
<g clip-path="url(#clip0_86_25)">
<path d="M29.2917 16.8627V14.0956C27.5854 13.5918 26.5106 13.4516 25.9667 12.3665C25.4227 11.279 26.0688 10.5395 26.8417 9.19464L24.4821 7.23834C22.8706 7.87272 21.9694 8.41526 20.6525 7.96334C19.34 7.51264 19.1694 6.61484 18.5656 5.20834H15.226C14.6252 6.60759 14.4531 7.51264 13.1392 7.96334C11.8267 8.41526 10.9356 7.87876 9.30958 7.23834L6.95146 9.19464C7.72 10.5359 8.37042 11.2778 7.82646 12.3665C7.27958 13.4552 6.18875 13.5978 4.5 14.0956V16.8615C6.18438 17.3593 7.28104 17.5031 7.825 18.5906C8.37333 19.6878 7.70688 20.4442 6.95 21.7625L9.30958 23.7188C10.924 23.0844 11.8237 22.5419 13.1377 22.9938C14.4502 23.4445 14.6238 24.3447 15.226 25.7488H18.5642C19.165 24.3496 19.3371 23.4469 20.6598 22.9914C21.9635 22.5419 22.8502 23.0772 24.4806 23.7188L26.8402 21.7625C26.0746 20.4249 25.4198 19.6806 25.9638 18.5906C26.5092 17.5043 27.6058 17.3593 29.2917 16.8627ZM16.8958 18.9036C14.615 18.9036 12.7644 17.3702 12.7644 15.4792C12.7644 13.5881 14.615 12.0548 16.8958 12.0548C19.1767 12.0548 21.0273 13.5881 21.0273 15.4792C21.0273 17.3702 19.1767 18.9036 16.8958 18.9036ZM39.5 23.9846V22.6833C38.6979 22.4464 38.1919 22.38 37.9352 21.8701C37.6785 21.3577 37.9833 21.0109 38.3465 20.3766L37.2352 19.4558C36.4769 19.7555 36.0525 20.0092 35.4342 19.7978C34.8158 19.5863 34.7356 19.1634 34.4513 18.5012H32.8821C32.5992 19.1598 32.5175 19.5851 31.8992 19.7978C31.2808 20.0104 30.8623 19.7579 30.0981 19.4558L28.9869 20.3766C29.3485 21.0085 29.6548 21.3577 29.3981 21.8701C29.1415 22.3824 28.6281 22.4488 27.8333 22.6833V23.9846C28.6267 24.2178 29.1415 24.2867 29.3981 24.7978C29.6563 25.3138 29.3427 25.6703 28.9869 26.2913L30.0981 27.2121C30.8579 26.9124 31.2823 26.6587 31.8992 26.8701C32.5175 27.0816 32.5977 27.5057 32.8821 28.1667H34.4513C34.7342 27.5081 34.8158 27.0828 35.4371 26.8689C36.051 26.6575 36.4681 26.91 37.2352 27.2121L38.3465 26.2913C37.9863 25.6618 37.6785 25.3102 37.9352 24.7991C38.1919 24.2879 38.7067 24.2178 39.5 23.9846ZM33.6667 24.9441C32.5933 24.9441 31.7227 24.2227 31.7227 23.3333C31.7227 22.444 32.5933 21.7226 33.6667 21.7226C34.74 21.7226 35.6106 22.444 35.6106 23.3333C35.6106 24.2227 34.74 24.9441 33.6667 24.9441ZM27.8333 28.6548V27.6785C27.2325 27.5009 26.8519 27.4513 26.6594 27.0683C26.4669 26.6853 26.6944 26.4243 26.9685 25.9482L26.1344 25.2582C25.5671 25.483 25.2492 25.6739 24.784 25.5144C24.3188 25.3549 24.2604 25.0383 24.046 24.5417H22.8692C22.6563 25.0359 22.595 25.3549 22.1313 25.5144C21.669 25.6739 21.354 25.4854 20.7808 25.2582L19.9467 25.9482C20.2194 26.4231 20.4483 26.6841 20.2558 27.0683C20.0633 27.4526 19.6783 27.5021 19.0819 27.6785V28.6548C19.6769 28.8301 20.0633 28.882 20.2558 29.2651C20.4498 29.6517 20.215 29.92 19.9467 30.3852L20.7808 31.0751C21.3496 30.8504 21.6675 30.6595 22.1313 30.819C22.595 30.9785 22.6548 31.2963 22.8692 31.7917H24.046C24.259 31.2975 24.3202 30.9785 24.7854 30.819H24.7869C25.2463 30.6607 25.5583 30.8492 26.1344 31.0763L26.9685 30.3864C26.6973 29.9139 26.4669 29.6505 26.6594 29.2663C26.8519 28.882 27.2383 28.8301 27.8333 28.6548ZM23.4583 29.375C22.6533 29.375 22 28.8349 22 28.1667C22 27.4985 22.6533 26.9583 23.4583 26.9583C24.2633 26.9583 24.9167 27.4985 24.9167 28.1667C24.9167 28.8349 24.2633 29.375 23.4583 29.375Z" fill="#47B1FF"/>
</g>
<path d="M50.43 26.6995C49.268 26.6995 48.2565 26.4545 47.3955 25.9645C46.5415 25.4745 45.8765 24.799 45.4005 23.938C44.9315 23.07 44.697 22.0725 44.697 20.9455C44.697 20.0915 44.8265 19.311 45.0855 18.604C45.3445 17.89 45.7155 17.274 46.1985 16.756C46.6815 16.231 47.2555 15.8285 47.9205 15.5485C48.5855 15.2615 49.3275 15.118 50.1465 15.118C50.9375 15.118 51.5955 15.2475 52.1205 15.5065C52.6525 15.7585 53.0655 16.1085 53.3595 16.5565C53.6535 16.9975 53.8425 17.505 53.9265 18.079H54.294L53.9895 19.6645C53.8985 19.0345 53.692 18.4815 53.37 18.0055C53.048 17.5225 52.628 17.148 52.11 16.882C51.592 16.609 50.9935 16.4725 50.3145 16.4725C49.5025 16.4725 48.7885 16.665 48.1725 17.05C47.5635 17.428 47.0875 17.953 46.7445 18.625C46.4085 19.29 46.2405 20.0635 46.2405 20.9455C46.2405 21.7995 46.412 22.5555 46.755 23.2135C47.105 23.8645 47.5915 24.3755 48.2145 24.7465C48.8445 25.1175 49.5865 25.303 50.4405 25.303C51.3225 25.303 52.082 25.1105 52.719 24.7255C53.356 24.3335 53.8215 23.8085 54.1155 23.1505L55.512 23.77C55.113 24.673 54.4725 25.387 53.5905 25.912C52.7155 26.437 51.662 26.6995 50.43 26.6995ZM53.9895 19.6645V15.3175H55.5015V19.6645H53.9895ZM61.1925 25.198H63.492V26.5H57.381V25.198H59.6805V11.212H57.381V9.91H61.1925V25.198ZM69.0248 25.198H71.1773V26.5H65.2448V25.198H67.5128V16.6195H65.2448V15.3175H69.0248V25.198ZM67.2293 10.603H69.1613V12.6085H67.2293V10.603ZM78.6058 26.6995C77.4508 26.6995 76.4498 26.4545 75.6028 25.9645C74.7558 25.4745 74.1013 24.799 73.6393 23.938C73.1773 23.07 72.9463 22.0725 72.9463 20.9455C72.9463 19.8045 73.1773 18.7965 73.6393 17.9215C74.1083 17.0465 74.7593 16.3605 75.5923 15.8635C76.4323 15.3665 77.4088 15.118 78.5218 15.118C79.6418 15.118 80.6113 15.363 81.4303 15.853C82.2493 16.343 82.8793 17.022 83.3203 17.89C83.7613 18.758 83.9818 19.759 83.9818 20.893C83.9818 21.026 83.9783 21.131 83.9713 21.208C83.9713 21.285 83.9643 21.3515 83.9503 21.4075H82.4593C82.4663 21.3235 82.4698 21.2325 82.4698 21.1345C82.4768 21.0295 82.4803 20.9105 82.4803 20.7775C82.4803 19.9445 82.3193 19.206 81.9973 18.562C81.6823 17.911 81.2308 17.4 80.6428 17.029C80.0548 16.658 79.3478 16.4725 78.5218 16.4725C77.7168 16.4725 77.0098 16.665 76.4008 17.05C75.7918 17.428 75.3193 17.953 74.9833 18.625C74.6473 19.29 74.4793 20.0635 74.4793 20.9455C74.4793 21.7995 74.6438 22.5555 74.9728 23.2135C75.3088 23.8645 75.7848 24.3755 76.4008 24.7465C77.0168 25.1175 77.7483 25.303 78.5953 25.303C79.4773 25.303 80.2403 25.0965 80.8843 24.6835C81.5353 24.2635 82.0183 23.693 82.3333 22.972L83.7613 23.5075C83.3483 24.4945 82.6868 25.275 81.7768 25.849C80.8738 26.416 79.8168 26.6995 78.6058 26.6995ZM73.9018 21.4075V20.242H83.4988L83.9398 21.4075H73.9018ZM89.8788 25.198H91.8738V26.5H86.0673V25.198H88.3668V16.6195H86.0673V15.3175H89.8788V25.198ZM96.3258 25.198V19.3495C96.3258 18.4325 96.1193 17.7115 95.7063 17.1865C95.2933 16.6615 94.6423 16.399 93.7533 16.399C93.0323 16.399 92.3778 16.5775 91.7898 16.9345C91.2018 17.2915 90.7363 17.8095 90.3933 18.4885C90.0503 19.1675 89.8788 19.99 89.8788 20.956L89.5323 18.7195H89.9523C90.0853 17.9565 90.3408 17.309 90.7188 16.777C91.0968 16.238 91.5798 15.8285 92.1678 15.5485C92.7628 15.2615 93.4453 15.118 94.2153 15.118C95.4333 15.118 96.3398 15.4715 96.9348 16.1785C97.5368 16.8785 97.8378 17.869 97.8378 19.15V25.198H99.9903V26.5H94.3623V25.198H96.3258ZM104.482 23.539C104.482 24.127 104.594 24.5715 104.818 24.8725C105.042 25.1665 105.385 25.3135 105.847 25.3135C106.302 25.3135 106.645 25.163 106.876 24.862C107.107 24.554 107.222 24.113 107.222 23.539V22.4995H108.587V23.5285C108.587 24.2005 108.486 24.7745 108.283 25.2505C108.087 25.7195 107.786 26.08 107.38 26.332C106.974 26.577 106.452 26.6995 105.815 26.6995C105.164 26.6995 104.629 26.5735 104.209 26.3215C103.789 26.0625 103.477 25.6985 103.274 25.2295C103.071 24.7605 102.97 24.197 102.97 23.539L102.98 16.6195H100.985V15.3175H102.98V12.4825H104.492V15.3175H108.44L108.43 16.6195H104.492L104.482 23.539ZM116.363 26.6995C115.201 26.6995 114.189 26.4545 113.328 25.9645C112.474 25.4745 111.809 24.799 111.333 23.938C110.864 23.07 110.63 22.0725 110.63 20.9455C110.63 20.0915 110.759 19.311 111.018 18.604C111.277 17.89 111.648 17.274 112.131 16.756C112.614 16.231 113.188 15.8285 113.853 15.5485C114.518 15.2615 115.26 15.118 116.079 15.118C116.87 15.118 117.528 15.2475 118.053 15.5065C118.585 15.7585 118.998 16.1085 119.292 16.5565C119.586 16.9975 119.775 17.505 119.859 18.079H120.227L119.922 19.6645C119.831 19.0345 119.625 18.4815 119.303 18.0055C118.981 17.5225 118.561 17.148 118.043 16.882C117.525 16.609 116.926 16.4725 116.247 16.4725C115.435 16.4725 114.721 16.665 114.105 17.05C113.496 17.428 113.02 17.953 112.677 18.625C112.341 19.29 112.173 20.0635 112.173 20.9455C112.173 21.7995 112.345 22.5555 112.688 23.2135C113.038 23.8645 113.524 24.3755 114.147 24.7465C114.777 25.1175 115.519 25.303 116.373 25.303C117.255 25.303 118.015 25.1105 118.652 24.7255C119.289 24.3335 119.754 23.8085 120.048 23.1505L121.445 23.77C121.046 24.673 120.405 25.387 119.523 25.912C118.648 26.437 117.595 26.6995 116.363 26.6995ZM119.922 19.6645V15.3175H121.434V19.6645H119.922ZM129.54 26.6995C128.378 26.6995 127.36 26.4545 126.485 25.9645C125.61 25.4675 124.927 24.7885 124.437 23.9275C123.947 23.0665 123.702 22.0725 123.702 20.9455C123.702 19.8115 123.947 18.807 124.437 17.932C124.927 17.05 125.61 16.3605 126.485 15.8635C127.36 15.3665 128.378 15.118 129.54 15.118C130.702 15.118 131.721 15.3665 132.596 15.8635C133.471 16.3605 134.153 17.05 134.643 17.932C135.133 18.807 135.378 19.8115 135.378 20.9455C135.378 22.0725 135.133 23.0665 134.643 23.9275C134.153 24.7885 133.471 25.4675 132.596 25.9645C131.721 26.4545 130.702 26.6995 129.54 26.6995ZM129.54 25.303C130.38 25.303 131.119 25.121 131.756 24.757C132.4 24.393 132.9 23.8855 133.257 23.2345C133.621 22.5765 133.803 21.8135 133.803 20.9455C133.803 20.0705 133.621 19.3005 133.257 18.6355C132.9 17.9705 132.4 17.4525 131.756 17.0815C131.119 16.7035 130.38 16.5145 129.54 16.5145C128.7 16.5145 127.958 16.7035 127.314 17.0815C126.677 17.4525 126.177 17.9705 125.813 18.6355C125.456 19.3005 125.277 20.0705 125.277 20.9455C125.277 21.8135 125.456 22.5765 125.813 23.2345C126.177 23.8855 126.677 24.393 127.314 24.757C127.958 25.121 128.7 25.303 129.54 25.303ZM141.353 25.198H143.348V26.5H137.542V25.198H139.841V16.6195H137.542V15.3175H141.353V25.198ZM147.8 25.198V19.3495C147.8 18.4325 147.594 17.7115 147.181 17.1865C146.768 16.6615 146.117 16.399 145.228 16.399C144.507 16.399 143.852 16.5775 143.264 16.9345C142.676 17.2915 142.211 17.8095 141.868 18.4885C141.525 19.1675 141.353 19.99 141.353 20.956L141.007 18.7195H141.427C141.56 17.9565 141.815 17.309 142.193 16.777C142.571 16.238 143.054 15.8285 143.642 15.5485C144.237 15.2615 144.92 15.118 145.69 15.118C146.908 15.118 147.814 15.4715 148.409 16.1785C149.011 16.8785 149.312 17.869 149.312 19.15V25.198H151.465V26.5H145.837V25.198H147.8ZM156.775 25.198H158.77V26.5H152.964V25.198H155.263V16.6195H152.964V15.3175H156.775V25.198ZM163.222 25.198V19.3495C163.222 18.4325 163.016 17.7115 162.603 17.1865C162.19 16.6615 161.539 16.399 160.65 16.399C159.929 16.399 159.274 16.5775 158.686 16.9345C158.098 17.2915 157.633 17.8095 157.29 18.4885C156.947 19.1675 156.775 19.99 156.775 20.956L156.429 18.7195H156.849C156.982 17.9565 157.237 17.309 157.615 16.777C157.993 16.238 158.476 15.8285 159.064 15.5485C159.659 15.2615 160.342 15.118 161.112 15.118C162.33 15.118 163.236 15.4715 163.831 16.1785C164.433 16.8785 164.734 17.869 164.734 19.15V25.198H166.887V26.5H161.259V25.198H163.222ZM174.152 26.6995C172.997 26.6995 171.996 26.4545 171.149 25.9645C170.302 25.4745 169.647 24.799 169.185 23.938C168.723 23.07 168.492 22.0725 168.492 20.9455C168.492 19.8045 168.723 18.7965 169.185 17.9215C169.654 17.0465 170.305 16.3605 171.138 15.8635C171.978 15.3665 172.955 15.118 174.068 15.118C175.188 15.118 176.157 15.363 176.976 15.853C177.795 16.343 178.425 17.022 178.866 17.89C179.307 18.758 179.528 19.759 179.528 20.893C179.528 21.026 179.524 21.131 179.517 21.208C179.517 21.285 179.51 21.3515 179.496 21.4075H178.005C178.012 21.3235 178.016 21.2325 178.016 21.1345C178.023 21.0295 178.026 20.9105 178.026 20.7775C178.026 19.9445 177.865 19.206 177.543 18.562C177.228 17.911 176.777 17.4 176.189 17.029C175.601 16.658 174.894 16.4725 174.068 16.4725C173.263 16.4725 172.556 16.665 171.947 17.05C171.338 17.428 170.865 17.953 170.529 18.625C170.193 19.29 170.025 20.0635 170.025 20.9455C170.025 21.7995 170.19 22.5555 170.519 23.2135C170.855 23.8645 171.331 24.3755 171.947 24.7465C172.563 25.1175 173.294 25.303 174.141 25.303C175.023 25.303 175.786 25.0965 176.43 24.6835C177.081 24.2635 177.564 23.693 177.879 22.972L179.307 23.5075C178.894 24.4945 178.233 25.275 177.323 25.849C176.42 26.416 175.363 26.6995 174.152 26.6995ZM169.448 21.4075V20.242H179.045L179.486 21.4075H169.448ZM187.525 26.6995C186.363 26.6995 185.351 26.4545 184.49 25.9645C183.636 25.4745 182.971 24.799 182.495 23.938C182.026 23.07 181.792 22.0725 181.792 20.9455C181.792 20.0915 181.921 19.311 182.18 18.604C182.439 17.89 182.81 17.274 183.293 16.756C183.776 16.231 184.35 15.8285 185.015 15.5485C185.68 15.2615 186.422 15.118 187.241 15.118C188.032 15.118 188.69 15.2475 189.215 15.5065C189.747 15.7585 190.16 16.1085 190.454 16.5565C190.748 16.9975 190.937 17.505 191.021 18.079H191.389L191.084 19.6645C190.993 19.0345 190.787 18.4815 190.465 18.0055C190.143 17.5225 189.723 17.148 189.205 16.882C188.687 16.609 188.088 16.4725 187.409 16.4725C186.597 16.4725 185.883 16.665 185.267 17.05C184.658 17.428 184.182 17.953 183.839 18.625C183.503 19.29 183.335 20.0635 183.335 20.9455C183.335 21.7995 183.507 22.5555 183.85 23.2135C184.2 23.8645 184.686 24.3755 185.309 24.7465C185.939 25.1175 186.681 25.303 187.535 25.303C188.417 25.303 189.177 25.1105 189.814 24.7255C190.451 24.3335 190.916 23.8085 191.21 23.1505L192.607 23.77C192.208 24.673 191.567 25.387 190.685 25.912C189.81 26.437 188.757 26.6995 187.525 26.6995ZM191.084 19.6645V15.3175H192.596V19.6645H191.084ZM197.731 23.539C197.731 24.127 197.843 24.5715 198.067 24.8725C198.291 25.1665 198.634 25.3135 199.096 25.3135C199.551 25.3135 199.894 25.163 200.125 24.862C200.356 24.554 200.471 24.113 200.471 23.539V22.4995H201.836V23.5285C201.836 24.2005 201.735 24.7745 201.532 25.2505C201.336 25.7195 201.035 26.08 200.629 26.332C200.223 26.577 199.701 26.6995 199.064 26.6995C198.413 26.6995 197.878 26.5735 197.458 26.3215C197.038 26.0625 196.726 25.6985 196.523 25.2295C196.32 24.7605 196.219 24.197 196.219 23.539L196.229 16.6195H194.234V15.3175H196.229V12.4825H197.741V15.3175H201.689L201.679 16.6195H197.741L197.731 23.539Z" fill="#212529"/>
<defs>
<clipPath id="clip0_86_25">
<rect width="35" height="29" fill="white" transform="translate(4.5 4)"/>
</clipPath>
</defs>
</svg>
